<mxfile host="app.diagrams.net" modified="2024-07-19T12:56:18.647Z" agent="Mozilla/5.0 (Windows NT 10.0; Win64; x64) AppleWebKit/537.36 (KHTML, like Gecko) Chrome/126.0.0.0 Safari/537.36" version="24.7.2" etag="taekNZ6AdOXv0txasiaN" type="github">
  <diagram name="PÃ¡gina-1" id="C81uIqaBSB1-Kto4-aI6">
    <mxGraphModel>
      <root>
        <mxCell id="0" />
        <mxCell id="1" parent="0" />
      </root>
    </mxGraphModel>
  </diagram>
</mxfile>
